STARTFONT 2.1
FONT -Haralambous-Arabic-Medium-R-Normal--20-100-205-205-p-140-iso10646-1
SIZE 10 205 205
FONTBOUNDINGBOX 35 48 4 -18
STARTPROPERTIES 4
DEFAULT_CHAR 83
FONT_ASCENT 30
FONT_DESCENT 18
COPYRIGHT "Public Domain"
ENDPROPERTIES
CHARS 169
STARTCHAR C001
ENCODING 1616
SWIDTH 0 0
DWIDTH 0 0
BBX 4 2 -2 -12
BITMAP
30
C0
ENDCHAR
STARTCHAR C002
ENCODING 1615
SWIDTH 0 0
DWIDTH 0 0
BBX 7 7 -1 22
BITMAP
0C
1E
16
1C
08
30
C0
ENDCHAR
STARTCHAR C003
ENCODING 1617
SWIDTH 0 0
DWIDTH 0 0
BBX 6 5 -1 15
BITMAP
10
E8
A4
BC
E8
ENDCHAR
STARTCHAR C004
ENCODING 1618
SWIDTH 0 0
DWIDTH 0 0
BBX 5 4 1 22
BITMAP
70
D0
D8
F0
ENDCHAR
STARTCHAR C005
ENCODING 1612
SWIDTH 0 0
DWIDTH 0 0
BBX 9 7 -3 20
BITMAP
0300
0780
0580
7F00
FA00
1C00
3000
ENDCHAR
STARTCHAR C006
ENCODING 1611
SWIDTH 0 0
DWIDTH 0 0
BBX 5 6 1 22
BITMAP
08
30
68
B0
C0
80
ENDCHAR
STARTCHAR C007
ENCODING 1613
SWIDTH 0 0
DWIDTH 0 0
BBX 6 5 -3 -13
BITMAP
0C
30
CC
30
C0
ENDCHAR
STARTCHAR C016
ENCODING 1614
SWIDTH 0 0
DWIDTH 0 0
BBX 5 4 1 22
BITMAP
08
30
60
80
ENDCHAR
STARTCHAR C020
ENCODING 1571
SWIDTH 120 0
DWIDTH 5 0
BBX 4 21 1 0
BITMAP
F0
80
F0
F0
C0
00
00
C0
C0
C0
C0
80
80
80
80
80
80
80
80
80
80
ENDCHAR
STARTCHAR C021
ENCODING 65156
SWIDTH 144 0
DWIDTH 6 0
BBX 6 21 0 0
BITMAP
F0
80
F0
F0
C0
00
00
C0
C0
C0
40
40
40
40
40
40
40
60
7C
3C
1C
ENDCHAR
STARTCHAR C022
ENCODING 1573
SWIDTH 120 0
DWIDTH 5 0
BBX 5 24 0 -6
BITMAP
60
60
60
60
60
60
40
40
40
40
40
40
40
40
40
40
40
40
00
70
C0
F8
70
C0
ENDCHAR
STARTCHAR C023
ENCODING 65160
SWIDTH 144 0
DWIDTH 6 0
BBX 6 24 0 -6
BITMAP
C0
C0
C0
C0
40
40
40
40
40
40
40
40
40
40
60
7C
3C
1C
00
F0
80
F0
F0
C0
ENDCHAR
STARTCHAR C024
ENCODING 1572
SWIDTH 336 0
DWIDTH 14 0
BBX 10 22 1 -4
BITMAP
0300
0700
0400
0780
0700
0C00
0000
0000
0000
0000
0380
0780
0640
07C0
03C0
0040
0040
0180
0380
0F00
3E00
F800
ENDCHAR
STARTCHAR C025
ENCODING 65158
SWIDTH 360 0
DWIDTH 15 0
BBX 14 22 1 -7
BITMAP
0380
0500
0600
0780
0700
0400
0000
0000
0000
01C0
03E0
0660
077C
03FC
01FC
0030
0020
0020
0040
0080
0E00
F800
ENDCHAR
STARTCHAR C026
ENCODING 1570
SWIDTH 120 0
DWIDTH 5 0
BBX 9 19 -2 0
BITMAP
3980
7F00
8000
0000
1800
1800
1800
1800
1800
1000
1000
1000
1000
1000
1000
1000
1000
1000
1000
ENDCHAR
STARTCHAR C027
ENCODING 65154
SWIDTH 144 0
DWIDTH 6 0
BBX 9 19 -3 0
BITMAP
3980
7F00
8000
0000
1800
1800
1800
0800
0800
0800
0800
0800
0800
0800
0800
0C00
0F80
0780
0380
ENDCHAR
STARTCHAR C028
ENCODING 65271
SWIDTH 384 0
DWIDTH 16 0
BBX 11 23 -1 -2
BITMAP
3800
58C0
C0E0
F040
7840
7040
8040
1060
3860
0C60
0660
0260
0160
00E0
00C0
0040
0040
00C0
00A0
0320
0620
0640
0380
ENDCHAR
STARTCHAR C029
ENCODING 65272
SWIDTH 360 0
DWIDTH 15 0
BBX 16 21 -1 -1
BITMAP
F000
8018
F018
F018
C018
1018
3818
1C18
0608
0308
0188
0088
00C8
0048
0078
0078
007C
00EF
01C7
0783
1E00
ENDCHAR
STARTCHAR C030
ENCODING 65269
SWIDTH 384 0
DWIDTH 16 0
BBX 14 23 -4 -2
BITMAP
0018
0018
001C
1848
7F88
C608
0008
060C
070C
018C
00CC
004C
002C
001C
0018
0008
0008
0018
0014
0064
00C4
00C8
0070
ENDCHAR
STARTCHAR C031
ENCODING 65270
SWIDTH 336 0
DWIDTH 14 0
BBX 17 20 -3 -1
BITMAP
000C00
730C00
FE0C00
000C00
080C00
1C0C00
0E0C00
030400
018400
00C400
004400
006400
002400
003C00
003C00
003E00
007780
00E380
03C180
0F0000
ENDCHAR
STARTCHAR C034
ENCODING 187
SWIDTH 312 0
DWIDTH 13 0
BBX 10 12 1 1
BITMAP
0CC0
0880
1100
3300
6600
EE00
EE00
6600
3300
1100
0880
0CC0
ENDCHAR
STARTCHAR C037
ENCODING 1642
SWIDTH 336 0
DWIDTH 14 0
BBX 9 27 2 -7
BITMAP
C000
C000
E000
6000
6300
6780
7780
3300
3000
3800
1800
1800
1800
1C00
0C00
0C00
0C00
0E00
0600
3600
7700
7B00
2300
0300
0380
0180
0180
ENDCHAR
STARTCHAR C044
ENCODING 1548
SWIDTH 192 0
DWIDTH 8 0
BBX 3 8 2 0
BITMAP
20
40
40
80
80
C0
E0
40
ENDCHAR
STARTCHAR C048
ENCODING 1632
SWIDTH 264 0
DWIDTH 11 0
BBX 6 5 1 7
BITMAP
30
78
FC
78
30
ENDCHAR
STARTCHAR C049
ENCODING 1633
SWIDTH 216 0
DWIDTH 9 0
BBX 6 18 0 0
BITMAP
60
60
E0
F0
70
70
38
38
38
18
18
0C
0C
0C
0C
04
04
04
ENDCHAR
STARTCHAR C050
ENCODING 1634
SWIDTH 312 0
DWIDTH 13 0
BBX 10 19 0 0
BITMAP
2040
20C0
71C0
FFC0
FF80
7F80
7E00
3000
3000
3000
1800
1800
1800
1800
1800
0800
0800
0800
0800
ENDCHAR
STARTCHAR C051
ENCODING 1635
SWIDTH 360 0
DWIDTH 15 0
BBX 12 19 0 0
BITMAP
2110
2310
6330
FFF0
FFF0
7FE0
3DC0
3800
1800
1800
1800
0800
0800
0C00
0C00
0400
0400
0400
0400
ENDCHAR
STARTCHAR C052
ENCODING 1636
SWIDTH 312 0
DWIDTH 13 0
BBX 10 19 0 0
BITMAP
0400
0C00
3800
6000
E000
F000
FC00
FC00
3800
3000
6000
4000
C000
C000
E000
F800
7E00
7FC0
1F80
ENDCHAR
STARTCHAR C053
ENCODING 1637
SWIDTH 240 0
DWIDTH 10 0
BBX 7 9 0 3
BITMAP
10
7C
7C
7E
CE
FE
FE
FC
78
ENDCHAR
STARTCHAR C054
ENCODING 1638
SWIDTH 312 0
DWIDTH 13 0
BBX 9 19 1 0
BITMAP
8600
FE00
FE00
7E00
0200
0200
0600
0600
0600
0600
0600
0600
0700
0700
0780
0780
0700
0200
0200
ENDCHAR
STARTCHAR C055
ENCODING 1639
SWIDTH 360 0
DWIDTH 15 0
BBX 13 19 0 1
BITMAP
4008
6018
6030
F030
F060
7860
3840
3CC0
1CC0
1C80
0D80
0F80
0F80
0780
0700
0700
0300
0300
0300
ENDCHAR
STARTCHAR C056
ENCODING 1640
SWIDTH 360 0
DWIDTH 15 0
BBX 13 19 -1 0
BITMAP
0600
0600
0600
0700
0700
0F00
0F80
0F80
0D80
09C0
19C0
19E0
10E0
30F0
3078
6078
6030
C030
8010
ENDCHAR
STARTCHAR C057
ENCODING 1641
SWIDTH 312 0
DWIDTH 13 0
BBX 10 19 0 0
BITMAP
3C00
7E00
7F00
FF00
E700
FF00
FF00
7F00
0300
0300
0300
0180
0180
0180
01C0
01C0
00C0
0080
0080
ENDCHAR
STARTCHAR C059
ENCODING 1563
SWIDTH 192 0
DWIDTH 8 0
BBX 3 17 2 1
BITMAP
20
40
40
80
80
C0
E0
40
00
00
00
00
00
00
40
E0
40
ENDCHAR
STARTCHAR C063
ENCODING 1567
SWIDTH 312 0
DWIDTH 13 0
BBX 8 19 1 0
BITMAP
3C
62
C7
C7
C6
60
30
10
18
08
08
08
08
00
00
00
08
1C
08
ENDCHAR
STARTCHAR C064
ENCODING 1569
SWIDTH 192 0
DWIDTH 8 0
BBX 6 9 1 1
BITMAP
3C
7C
80
C0
FC
FC
3C
C0
80
ENDCHAR
STARTCHAR C065
ENCODING 1575
SWIDTH 144 0
DWIDTH 6 0
BBX 2 15 1 0
BITMAP
C0
C0
C0
C0
C0
C0
C0
C0
C0
C0
C0
40
40
C0
80
ENDCHAR
STARTCHAR C066
ENCODING 65166
SWIDTH 144 0
DWIDTH 6 0
BBX 6 15 0 0
BITMAP
80
C0
C0
C0
40
40
40
40
40
40
40
60
7C
3C
1C
ENDCHAR
STARTCHAR C067
ENCODING 1576
SWIDTH 576 0
DWIDTH 24 0
BBX 21 14 0 -5
BITMAP
400000
400070
800078
800018
C00010
E00030
7FFFF0
3FFFE0
0FFF80
000000
000000
000000
006000
006000
ENDCHAR
STARTCHAR C068
ENCODING 65169
SWIDTH 168 0
DWIDTH 7 0
BBX 5 14 -1 -6
BITMAP
18
18
08
08
18
F8
F0
E0
00
00
00
00
38
30
ENDCHAR
STARTCHAR C069
ENCODING 65170
SWIDTH 192 0
DWIDTH 8 0
BBX 9 11 -1 -6
BITMAP
0C00
1C00
FF80
F780
E380
0000
0000
0000
0000
0C00
0C00
ENDCHAR
STARTCHAR C070
ENCODING 65168
SWIDTH 576 0
DWIDTH 24 0
BBX 24 16 0 -7
BITMAP
800000
800000
800010
C00010
E00070
7C07F8
7FFF9F
1FFF0F
0FF007
000000
000000
000000
000000
007000
006000
002000
ENDCHAR
STARTCHAR C075
ENCODING 1662
SWIDTH 552 0
DWIDTH 23 0
BBX 20 18 0 -9
BITMAP
400000
0000E0
8000F0
800030
C00020
E00020
7FFFE0
3FFFC0
0FFF00
000000
000000
000000
039800
039800
010000
006000
00E000
006000
ENDCHAR
STARTCHAR C076
ENCODING 64344
SWIDTH 168 0
DWIDTH 7 0
BBX 7 18 -1 -10
BITMAP
18
18
08
08
18
F8
F0
E0
00
00
00
04
CE
CE
00
10
38
10
ENDCHAR
STARTCHAR C077
ENCODING 64345
SWIDTH 192 0
DWIDTH 11 0
BBX 12 15 -1 -10
BITMAP
0C00
1C00
FFF0
F7F0
E3F0
0000
0000
0000
0000
3380
3380
0100
0C00
0E00
0400
ENDCHAR
STARTCHAR C078
ENCODING 64343
SWIDTH 576 0
DWIDTH 24 0
BBX 24 19 0 -10
BITMAP
800000
800000
800010
C00010
E00070
7C07F8
7FFF9F
1FFF0F
0FF007
000000
000000
000000
000800
019C00
019C00
000000
002000
007000
002000
ENDCHAR
STARTCHAR C079
ENCODING 1578
SWIDTH 552 0
DWIDTH 23 0
BBX 20 12 0 0
BITMAP
011800
03BC00
011800
400000
0000E0
8000F0
800030
C00020
E00020
7FFFE0
3FFFC0
0FFF00
ENDCHAR
STARTCHAR C080
ENCODING 65175
SWIDTH 168 0
DWIDTH 7 0
BBX 7 15 -1 0
BITMAP
04
EE
CE
00
00
00
00
18
18
08
08
18
F8
F0
E0
ENDCHAR
STARTCHAR C081
ENCODING 65176
SWIDTH 192 0
DWIDTH 8 0
BBX 9 11 -1 0
BITMAP
3100
7B80
3100
0000
0000
0000
0C00
1C00
FF80
F780
E380
ENDCHAR
STARTCHAR C082
ENCODING 65174
SWIDTH 576 0
DWIDTH 24 0
BBX 24 13 0 0
BITMAP
006600
00E600
004000
000000
800000
800000
800010
C00010
E00070
7C07F8
7FFF9F
1FFF0F
0FF007
ENDCHAR
STARTCHAR C087
ENCODING 1579
SWIDTH 552 0
DWIDTH 23 0
BBX 20 19 0 0
BITMAP
004000
006000
00E000
000000
011800
03B800
010800
000000
000000
000000
400000
0000E0
8000F0
800030
C00020
E00020
7FFFE0
3FFFC0
0FFF00
ENDCHAR
STARTCHAR C088
ENCODING 65179
SWIDTH 168 0
DWIDTH 7 0
BBX 7 18 -1 0
BITMAP
10
38
30
04
EE
CE
00
00
00
00
18
18
08
08
18
F8
F0
E0
ENDCHAR
STARTCHAR C089
ENCODING 65180
SWIDTH 192 0
DWIDTH 8 0
BBX 9 14 -1 0
BITMAP
0C00
1C00
0400
3100
7B80
3100
0000
0000
0000
0C00
1C00
FF80
F780
E380
ENDCHAR
STARTCHAR C090
ENCODING 65178
SWIDTH 576 0
DWIDTH 24 0
BBX 24 17 0 0
BITMAP
001000
003800
001800
000000
006600
00E600
004000
000000
800000
800000
800010
C00010
E00070
7C07F8
7FFF9F
1FFF0F
0FF007
ENDCHAR
STARTCHAR C092
ENCODING 171
SWIDTH 312 0
DWIDTH 13 0
BBX 10 12 1 1
BITMAP
8800
4400
6600
3300
1980
1DC0
1DC0
1980
3300
6600
4400
8800
ENDCHAR
STARTCHAR C094
ENCODING 1580
SWIDTH 504 0
DWIDTH 21 0
BBX 18 20 0 -11
BITMAP
3FC000
7FFF00
7FFE00
07F200
0E0000
180000
300000
600000
400000
C18000
838000
800000
800000
C00000
E00000
700000
7C0040
3FCF80
0FFE00
03F800
ENDCHAR
STARTCHAR C095
ENCODING 1600
SWIDTH 168 0
DWIDTH 7 0
BBX 8 3 -1 0
BITMAP
FF
FF
FF
ENDCHAR
STARTCHAR C096
ENCODING 65183
SWIDTH 528 0
DWIDTH 22 0
BBX 20 13 -1 -4
BITMAP
0FC000
1FF800
023F80
000FF0
003FE0
03FFE0
FFC000
FE0000
F00000
000000
002000
007000
002000
ENDCHAR
STARTCHAR C097
ENCODING 65184
SWIDTH 408 0
DWIDTH 17 0
BBX 18 12 -1 -2
BITMAP
0C0000
1F8000
1FFFC0
007FC0
00E980
038C00
0F0C00
FC0FC0
F807C0
E023C0
007000
006000
ENDCHAR
STARTCHAR C098
ENCODING 65182
SWIDTH 408 0
DWIDTH 17 0
BBX 19 20 0 -11
BITMAP
3FC000
7FFF80
7FFF00
07FA00
0E0800
180C00
300780
200780
400380
418000
81C000
808000
800000
C00000
E00000
700000
7C0020
3FE7C0
0FFF00
03F800
ENDCHAR
STARTCHAR C099
ENCODING 1670
SWIDTH 504 0
DWIDTH 21 0
BBX 18 20 0 -11
BITMAP
3FC000
7FFF00
7FFE00
07F200
0E0000
180000
300000
600000
400000
C66000
8E7000
802000
808000
C1C000
E08000
700000
7C0040
3FCF80
0FFE00
03F800
ENDCHAR
STARTCHAR C100
ENCODING 64380
SWIDTH 528 0
DWIDTH 22 0
BBX 20 16 -1 -7
BITMAP
0FC000
1FF800
023F80
000FF0
003FE0
03FFE0
FFC000
FE0000
F00000
000000
018C00
01DC00
008800
002000
007000
002000
ENDCHAR
STARTCHAR C101
ENCODING 64381
SWIDTH 408 0
DWIDTH 17 0
BBX 18 18 -1 -7
BITMAP
0E0000
1FC000
11FFC0
003FC0
007B80
018800
070800
1E0C00
FC0FC0
F807C0
E003C0
000000
00C600
00CE00
000400
001000
003800
001000
ENDCHAR
STARTCHAR C102
ENCODING 64379
SWIDTH 408 0
DWIDTH 17 0
BBX 19 20 0 -11
BITMAP
3FC000
7FFF80
7FFF00
07FA00
0E0800
180C00
300780
200780
400380
463000
877000
820000
808000
C1C000
E08000
700000
7C0020
3FE7C0
0FFF00
03F800
ENDCHAR
STARTCHAR C103
ENCODING 1649
SWIDTH 120 0
DWIDTH 5 0
BBX 9 21 -2 0
BITMAP
0380
3C80
7E80
C700
0000
1800
1800
1800
1800
1800
1800
1000
1000
1000
1000
1000
1000
1000
1000
1000
1000
ENDCHAR
STARTCHAR C104
ENCODING 64337
SWIDTH 144 0
DWIDTH 6 0
BBX 9 21 -3 0
BITMAP
0380
3C80
7E80
C700
0000
1800
1800
1800
1800
0800
0800
0800
0800
0800
0800
0800
0800
0C00
0F80
0780
0380
ENDCHAR
STARTCHAR ASTERISK
ENCODING 1645
SWIDTH 500 0
DWIDTH 8 0
BBX 8 16 0 -2
BITMAP
00
00
00
00
00
00
08
49
2A
1C
2A
49
08
00
00
00
ENDCHAR
STARTCHAR C111
ENCODING 1581
SWIDTH 504 0
DWIDTH 21 0
BBX 18 20 0 -11
BITMAP
3FC000
7FFF00
7FFE00
07F200
0E0000
180000
300000
600000
400000
C00000
800000
800000
800000
C00000
E00000
700000
7C0040
3FCF80
0FFE00
03F800
ENDCHAR
STARTCHAR C112
ENCODING 65187
SWIDTH 528 0
DWIDTH 22 0
BBX 20 9 -1 0
BITMAP
0FC000
1FF800
023F80
000FF0
003FE0
03FFE0
FFC000
FE0000
F00000
ENDCHAR
STARTCHAR C113
ENCODING 65188
SWIDTH 408 0
DWIDTH 17 0
BBX 18 11 -1 0
BITMAP
0E0000
1FC000
11FFC0
003FC0
007B80
018800
070800
1E0C00
FC0FC0
F807C0
E003C0
ENDCHAR
STARTCHAR C114
ENCODING 65186
SWIDTH 408 0
DWIDTH 17 0
BBX 19 20 0 -11
BITMAP
3FC000
7FFF80
7FFF00
07FA00
0E0800
180C00
300780
200780
400380
400000
800000
800000
800000
C00000
E00000
700000
7C0020
3FE7C0
0FFF00
03F800
ENDCHAR
STARTCHAR C115
ENCODING 1582
SWIDTH 504 0
DWIDTH 21 0
BBX 18 25 0 -11
BITMAP
008000
01C000
00C000
000000
000000
3FC000
7FFF00
7FFE00
07F200
0E0000
180000
300000
600000
400000
C00000
800000
800000
800000
C00000
E00000
700000
7C0040
3FCF80
0FFE00
03F800
ENDCHAR
STARTCHAR C116
ENCODING 65191
SWIDTH 528 0
DWIDTH 22 0
BBX 20 14 -1 0
BITMAP
002000
007000
006000
002000
000000
0FC000
1FF800
023F80
000FF0
003FE0
03FFE0
FFC000
FE0000
F00000
ENDCHAR
STARTCHAR C117
ENCODING 65192
SWIDTH 408 0
DWIDTH 17 0
BBX 18 14 -1 0
BITMAP
000C00
001C00
000800
0E0000
1FC000
11FFC0
003FC0
007B80
018800
070800
1E0C00
FC0FC0
F807C0
E003C0
ENDCHAR
STARTCHAR C118
ENCODING 65190
SWIDTH 408 0
DWIDTH 17 0
BBX 19 24 0 -11
BITMAP
00E000
00C000
000000
000000
3FC000
7FFF80
7FFF00
07FA00
0E0800
180C00
300780
200780
400380
400000
800000
800000
800000
C00000
E00000
700000
7C0020
3FE7C0
0FFF00
03F800
ENDCHAR
STARTCHAR C119
ENCODING 1583
SWIDTH 336 0
DWIDTH 14 0
BBX 11 13 0 -2
BITMAP
0C00
0C00
0F00
0780
03C0
00E0
4060
4060
C1C0
C7C0
FF80
FE00
7000
ENDCHAR
STARTCHAR C120
ENCODING 65194
SWIDTH 288 0
DWIDTH 12 0
BBX 12 13 0 0
BITMAP
0400
0400
0600
0700
0300
0180
4180
C180
C3C0
CEC0
FEF0
FC70
7030
ENDCHAR
STARTCHAR C125
ENCODING 1584
SWIDTH 336 0
DWIDTH 14 0
BBX 11 20 0 -2
BITMAP
1800
3C00
1800
0000
0000
0000
0000
0C00
0C00
0F00
0780
03C0
00E0
4060
4060
C1C0
C7C0
FF80
FE00
7000
ENDCHAR
STARTCHAR C126
ENCODING 65196
SWIDTH 288 0
DWIDTH 12 0
BBX 12 19 0 0
BITMAP
0800
0E00
0C00
0000
0000
0000
0400
0400
0600
0700
0300
0180
4180
C180
C3C0
CEC0
FEF0
FC70
7030
ENDCHAR
STARTCHAR C128
ENCODING 65198
SWIDTH 312 0
DWIDTH 13 0
BBX 13 12 0 -7
BITMAP
0080
00C0
00F8
0078
0078
0040
0040
01C0
0380
0F00
3C00
F000
ENDCHAR
STARTCHAR C129
ENCODING 1585
SWIDTH 288 0
DWIDTH 12 0
BBX 10 12 0 -5
BITMAP
0080
00C0
00C0
0040
0040
0040
00C0
01C0
0380
0F00
3C00
F000
ENDCHAR
STARTCHAR C131
ENCODING 1586
SWIDTH 288 0
DWIDTH 12 0
BBX 10 17 0 -5
BITMAP
01C0
0180
0000
0000
0000
0080
00C0
00C0
0040
0040
0040
00C0
01C0
0380
0F00
3C00
F000
ENDCHAR
STARTCHAR C132
ENCODING 65200
SWIDTH 312 0
DWIDTH 13 0
BBX 13 17 0 -7
BITMAP
0300
0300
0000
0000
0000
0080
00C0
00F8
0078
0078
0040
0040
01C0
0380
0F00
3C00
F000
ENDCHAR
STARTCHAR C137
ENCODING 1587
SWIDTH 696 0
DWIDTH 29 0
BBX 26 12 0 -6
BITMAP
20000000
60004240
4000F6C0
4000FFC0
8000FFC0
80007980
C0006000
C0004000
F000C000
7FFF8000
3FFE0000
1FF00000
ENDCHAR
STARTCHAR C138
ENCODING 65203
SWIDTH 432 0
DWIDTH 18 0
BBX 16 6 -1 0
BITMAP
0001
0219
0E3D
FFFF
FBEE
E380
ENDCHAR
STARTCHAR C139
ENCODING 65204
SWIDTH 384 0
DWIDTH 16 0
BBX 17 6 -1 0
BITMAP
044400
0C4400
1CCE00
FFFF80
FFFF80
EE7380
ENDCHAR
STARTCHAR C140
ENCODING 65202
SWIDTH 744 0
DWIDTH 31 0
BBX 31 12 0 -6
BITMAP
20000000
60006110
4000F718
4000FFFE
80007DEE
800079CE
C0002000
C0006000
F000C000
7FFFC000
3FFF0000
1FF80000
ENDCHAR
STARTCHAR C141
ENCODING 1588
SWIDTH 696 0
DWIDTH 29 0
BBX 26 19 0 -6
BITMAP
00000C00
00000C00
00000000
00003300
00007380
00002100
00000000
20000000
60004240
4000F6C0
4000FFC0
8000FFC0
80007980
C0006000
C0004000
F000C000
7FFF8000
3FFE0000
1FF00000
ENDCHAR
STARTCHAR C142
ENCODING 65207
SWIDTH 432 0
DWIDTH 18 0
BBX 16 14 -1 0
BITMAP
0030
0030
0000
00CC
01CE
0084
0000
0000
0001
0219
0E3D
FFFF
FBEE
E380
ENDCHAR
STARTCHAR C143
ENCODING 65208
SWIDTH 384 0
DWIDTH 16 0
BBX 17 15 -1 0
BITMAP
002000
007000
007000
000000
00CC00
01DC00
008000
000000
000000
044400
0C4400
1CCE00
FFFF80
FFFF80
EE7380
ENDCHAR
STARTCHAR C144
ENCODING 65206
SWIDTH 744 0
DWIDTH 31 0
BBX 31 19 0 -6
BITMAP
00000E00
00000E00
00000400
00003180
00003B80
00001100
00000000
20000000
60006110
4000F718
4000FFFE
80007DEE
800079CE
C0002000
C0006000
F000C000
7FFFC000
3FFF0000
1FF80000
ENDCHAR
STARTCHAR C149
ENCODING 1589
SWIDTH 744 0
DWIDTH 31 0
BBX 28 14 0 -5
BITMAP
00000380
00000FE0
00003870
2000A030
4001E030
4001E030
8001FFE0
8000FFC0
80008E00
C0008000
E0010000
7FFE0000
3FFC0000
1FE00000
ENDCHAR
STARTCHAR C150
ENCODING 65211
SWIDTH 408 0
DWIDTH 17 0
BBX 16 8 -1 0
BITMAP
00FC
01CE
0303
1A03
1C03
FFFF
F7FE
E3F0
ENDCHAR
STARTCHAR C151
ENCODING 65212
SWIDTH 384 0
DWIDTH 16 0
BBX 17 8 -1 0
BITMAP
00FC00
01CE00
030300
1A0300
1C0300
FFFF80
F7FF80
E3FF80
ENDCHAR
STARTCHAR C152
ENCODING 65210
SWIDTH 744 0
DWIDTH 31 0
BBX 31 13 0 -5
BITMAP
000007F0
00000E78
20001818
40007018
4000F018
8000FFFE
80007FFE
80007FFE
C0004000
E000C000
7FFF8000
3FFE0000
0FF00000
ENDCHAR
STARTCHAR C153
ENCODING 1590
SWIDTH 744 0
DWIDTH 31 0
BBX 28 18 0 -5
BITMAP
0000C000
0000E000
00004000
00000000
00000380
00000FE0
00003870
2000A030
4001E030
4001E030
8001FFE0
8000FFC0
80008E00
C0008000
E0010000
7FFE0000
3FFC0000
1FE00000
ENDCHAR
STARTCHAR C154
ENCODING 65215
SWIDTH 408 0
DWIDTH 17 0
BBX 16 14 -1 0
BITMAP
0080
00C0
00C0
0000
0000
0000
00FC
01CE
0303
1A03
1C03
FFFF
F7FE
E3F0
ENDCHAR
STARTCHAR C155
ENCODING 65216
SWIDTH 384 0
DWIDTH 16 0
BBX 17 14 -1 0
BITMAP
002000
007000
003000
000000
000000
000000
00FC00
01CE00
030300
1A0300
1C0300
FFFF80
F7FF80
E3FF80
ENDCHAR
STARTCHAR C156
ENCODING 65214
SWIDTH 744 0
DWIDTH 31 0
BBX 31 19 0 -5
BITMAP
000001C0
000001C0
00000080
00000000
00000000
00000000
000007F0
00000E78
20001818
40007018
4000F018
8000FFFE
80007FFE
80007FFE
C0004000
E000C000
7FFF8000
3FFE0000
0FF00000
ENDCHAR
STARTCHAR C157
ENCODING 1591
SWIDTH 456 0
DWIDTH 19 0
BBX 17 19 0 0
BITMAP
008000
01C000
01C000
00C000
00C000
00C000
00C000
00C000
00C000
00C000
00C000
00DF00
00FF00
00C180
008180
018300
FFFE00
3FFC00
07E000
ENDCHAR
STARTCHAR C158
ENCODING 65219
SWIDTH 288 0
DWIDTH 12 0
BBX 12 19 -1 0
BITMAP
1000
3800
1800
1C00
1800
1800
1800
1800
0800
0800
0800
0BE0
1FF0
1830
1030
3060
FFC0
FF80
FC00
ENDCHAR
STARTCHAR C159
ENCODING 65220
SWIDTH 288 0
DWIDTH 12 0
BBX 13 19 -1 0
BITMAP
1000
3800
1800
1C00
1800
1800
1800
1800
0800
0800
0800
0BE0
1FF0
1830
1030
3060
FFF8
FFF8
FFF8
ENDCHAR
STARTCHAR C160
ENCODING 65218
SWIDTH 456 0
DWIDTH 19 0
BBX 19 19 0 0
BITMAP
008000
01C000
01C000
00C000
00C000
00C000
00C000
00C000
00C000
00C000
00C000
00DF00
00FF00
00C180
008180
018300
FFFFE0
3FFFE0
07FFE0
ENDCHAR
STARTCHAR C161
ENCODING 1592
SWIDTH 456 0
DWIDTH 19 0
BBX 17 19 0 0
BITMAP
008000
01C000
01C000
00C000
00C000
00CC00
00CC00
00C000
00C000
00C000
00C000
00DF00
00FF00
00C180
008180
018300
FFFE00
3FFC00
07E000
ENDCHAR
STARTCHAR C162
ENCODING 65223
SWIDTH 288 0
DWIDTH 12 0
BBX 12 19 -1 0
BITMAP
1000
3800
1800
1C00
1800
19C0
1980
1800
0800
0800
0800
0BE0
1FF0
1830
1030
3060
FFC0
FF80
FC00
ENDCHAR
STARTCHAR C163
ENCODING 65224
SWIDTH 288 0
DWIDTH 12 0
BBX 13 19 -1 0
BITMAP
1000
3800
1800
1C00
1800
19C0
1980
1800
0800
0800
0800
0BE0
1FF0
1830
1030
3060
FFF8
FFF8
FFF8
ENDCHAR
STARTCHAR C164
ENCODING 65222
SWIDTH 456 0
DWIDTH 19 0
BBX 19 19 0 0
BITMAP
008000
01C000
01C000
00C000
00C000
00CC00
00CC00
00C000
00C000
00C000
00C000
00DF00
00FF00
00C180
008180
018300
FFFFE0
3FFFE0
07FFE0
ENDCHAR
STARTCHAR C165
ENCODING 1593
SWIDTH 504 0
DWIDTH 21 0
BBX 18 22 0 -7
BITMAP
03E000
07F000
0C0000
0C0000
0C0000
0F0E00
07FE00
07E000
0C0000
300000
200000
400000
C00000
C00000
C00000
C00000
E00000
780000
7E0000
3FF1C0
1FFE00
03F000
ENDCHAR
STARTCHAR C166
ENCODING 65227
SWIDTH 360 0
DWIDTH 15 0
BBX 12 11 -1 0
BITMAP
0F00
1FC0
3040
2000
2000
3000
3070
3FF0
FFE0
FC00
F000
ENDCHAR
STARTCHAR C167
ENCODING 65228
SWIDTH 312 0
DWIDTH 13 0
BBX 14 8 -1 0
BITMAP
1FE0
3030
3C70
0FC0
07C0
FFFC
FCFC
F03C
ENDCHAR
STARTCHAR C168
ENCODING 65226
SWIDTH 312 0
DWIDTH 13 0
BBX 13 20 0 -12
BITMAP
3FE0
7DE0
78E0
1F80
0780
0FF8
18F8
3038
6000
4000
C000
C000
8000
8000
C000
C000
6000
7800
3E00
1F00
ENDCHAR
STARTCHAR C169
ENCODING 1594
SWIDTH 504 0
DWIDTH 21 0
BBX 18 29 0 -7
BITMAP
006000
00E000
004000
000000
000000
000000
000000
03E000
07F000
0C0000
0C0000
0C0000
0F0E00
07FE00
07E000
0C0000
300000
200000
400000
C00000
C00000
C00000
C00000
E00000
780000
7E0000
3FF1C0
1FFE00
03F000
ENDCHAR
STARTCHAR C170
ENCODING 65231
SWIDTH 360 0
DWIDTH 15 0
BBX 12 17 -1 0
BITMAP
0200
0700
0200
0000
0000
0000
0F00
1FC0
3040
2000
2000
3000
3070
3FF0
FFE0
FC00
F000
ENDCHAR
STARTCHAR C171
ENCODING 65232
SWIDTH 312 0
DWIDTH 13 0
BBX 14 14 -1 0
BITMAP
0300
0700
0200
0000
0000
0000
1FE0
3030
3C70
0FC0
07C0
FFFC
FCFC
F03C
ENDCHAR
STARTCHAR C172
ENCODING 65230
SWIDTH 312 0
DWIDTH 13 0
BBX 13 25 0 -12
BITMAP
0C00
0E00
0400
0000
0000
3FE0
7DE0
78E0
1F80
0780
0FF8
18F8
3038
6000
4000
C000
C000
8000
8000
C000
C000
6000
7800
3E00
1F00
ENDCHAR
STARTCHAR C177
ENCODING 1601
SWIDTH 552 0
DWIDTH 23 0
BBX 20 15 0 -1
BITMAP
0000C0
0000C0
000000
000000
6000E0
4001F0
4001B0
8001F0
8001F0
C00030
C00030
F00060
7FFFC0
3FFF80
0FFC00
ENDCHAR
STARTCHAR C178
ENCODING 65235
SWIDTH 192 0
DWIDTH 8 0
BBX 6 15 -1 0
BITMAP
10
38
10
00
18
3C
2C
74
3C
0C
04
1C
F8
F0
E0
ENDCHAR
STARTCHAR C179
ENCODING 65236
SWIDTH 192 0
DWIDTH 8 0
BBX 9 14 -1 0
BITMAP
0800
1C00
1800
0000
0000
1C00
1E00
1200
1200
1600
1C00
FF80
FF80
E380
ENDCHAR
STARTCHAR C180
ENCODING 65234
SWIDTH 552 0
DWIDTH 23 0
BBX 23 15 0 -1
BITMAP
000030
000078
000010
000000
000000
400070
4000F8
8000D8
8000D8
8000D0
C00070
F000FE
7FFFFE
7FFF0E
1FF000
ENDCHAR
STARTCHAR C185
ENCODING 1602
SWIDTH 480 0
DWIDTH 20 0
BBX 17 19 0 -3
BITMAP
000100
003380
003380
000000
000000
000000
000E00
001F00
001B00
801F80
801E80
800080
800080
800080
C00100
E00300
703E00
7FF800
1FC000
ENDCHAR
STARTCHAR C186
ENCODING 65239
SWIDTH 192 0
DWIDTH 8 0
BBX 7 15 -1 0
BITMAP
C6
EE
44
00
18
3C
2C
74
3C
0C
04
1C
F8
F0
E0
ENDCHAR
STARTCHAR C187
ENCODING 65240
SWIDTH 192 0
DWIDTH 8 0
BBX 9 14 -1 0
BITMAP
0200
7700
6300
0000
0000
1C00
1E00
1200
1200
1600
1C00
FF80
FF80
E380
ENDCHAR
STARTCHAR C188
ENCODING 65238
SWIDTH 480 0
DWIDTH 20 0
BBX 20 19 0 -7
BITMAP
001000
0019C0
001980
000000
000000
000000
000F00
000F80
001D80
401FF0
801FF0
800FF0
800040
800040
C00080
E00180
701E00
7FFC00
1FE000
ENDCHAR
STARTCHAR C189
ENCODING 1700
SWIDTH 552 0
DWIDTH 23 0
BBX 20 19 0 -1
BITMAP
000080
0001C0
0000C0
000200
000730
000730
000000
000000
6000E0
4001F0
4001B0
8001F0
8001F0
C00030
C00030
F00060
7FFFC0
3FFF80
0FFC00
ENDCHAR
STARTCHAR C190
ENCODING 64364
SWIDTH 192 0
DWIDTH 8 0
BBX 7 19 -1 0
BITMAP
10
38
38
10
C6
EE
44
00
18
3C
2C
74
3C
0C
04
1C
F8
F0
E0
ENDCHAR
STARTCHAR C191
ENCODING 64365
SWIDTH 192 0
DWIDTH 8 0
BBX 9 17 -1 0
BITMAP
0800
1C00
0800
0200
7700
6300
0000
0000
1C00
1E00
1200
1200
1600
1C00
FF80
FF80
E380
ENDCHAR
STARTCHAR C192
ENCODING 64363
SWIDTH 552 0
DWIDTH 23 0
BBX 23 18 0 -1
BITMAP
000030
000030
000010
0000C4
0001EE
000044
000000
000000
400070
4000F8
8000D8
8000D8
8000D0
C00070
F000FE
7FFFFE
7FFF0E
1FF000
ENDCHAR
STARTCHAR C193
ENCODING 1603
SWIDTH 504 0
DWIDTH 21 0
BBX 18 19 0 -1
BITMAP
000180
000180
000180
0001C0
000180
000180
000180
00E080
01E080
010080
41E0C0
81E0C0
8060C0
87E080
C00180
E00300
7FFE00
7FF800
1FC000
ENDCHAR
STARTCHAR C194
ENCODING 65243
SWIDTH 504 0
DWIDTH 21 0
BBX 21 21 -1 0
BITMAP
0000F8
0007F0
003F00
01F800
0FC000
3E0000
700000
600000
600000
700000
3C0000
1E0000
0F0000
078000
038000
01C000
00C000
008000
FF8000
FE0000
F80000
ENDCHAR
STARTCHAR C195
ENCODING 65244
SWIDTH 408 0
DWIDTH 17 0
BBX 19 21 -2 0
BITMAP
000020
0003E0
001F80
00FC00
07E000
7F0000
F80000
C00000
C00000
E00000
F00000
780000
1C0000
0E0000
078000
03C000
01E000
017800
7E3FE0
7C0FE0
7803E0
ENDCHAR
STARTCHAR C196
ENCODING 65242
SWIDTH 576 0
DWIDTH 24 0
BBX 24 19 0 0
BITMAP
0000C0
0000C0
0000C0
0000C0
0000C0
0000C0
00E0C0
01E0C0
0300C0
43C0E0
81E060
806060
8FC0E0
C000E0
C001E0
F00F78
7FFE7F
3FF83F
0FE00F
ENDCHAR
STARTCHAR C197
ENCODING 1711
SWIDTH 864 0
DWIDTH 36 0
BBX 35 29 0 -1
BITMAP
00000000E0
00000007E0
0000003F00
000001F800
00001FC0E0
00007E0FE0
0000207F00
000003F000
00001F8000
00007C0000
0000E00000
0000C00000
0000C00000
0000C00000
0000C00000
0000C00000
0000C00000
0060400000
01F0400000
0180600000
41E0600000
80F0600000
8070600000
87E0400000
C000C00000
E001800000
7FFF000000
7FFC000000
1FE0000000
ENDCHAR
STARTCHAR C198
ENCODING 64404
SWIDTH 504 0
DWIDTH 21 0
BBX 21 25 -1 0
BITMAP
000078
0003F0
001F80
01FC00
0FE0F8
1E07F0
003F00
01F800
0FC000
3E0000
700000
600000
600000
700000
3C0000
1E0000
0F0000
078000
038000
01C000
00C000
008000
FF8000
FE0000
F80000
ENDCHAR
STARTCHAR C199
ENCODING 64405
SWIDTH 408 0
DWIDTH 17 0
BBX 19 25 -2 0
BITMAP
000020
0001E0
000FC0
00FE00
07F020
3F03E0
381F80
00FC00
07E000
7F0000
F80000
C00000
C00000
E00000
F00000
780000
1C0000
0E0000
078000
03C000
01E000
017800
7E3FE0
7C0FE0
7803E0
ENDCHAR
STARTCHAR C200
ENCODING 64403
SWIDTH 576 0
DWIDTH 24 0
BBX 35 29 0 0
BITMAP
00000000E0
00000007E0
0000003F00
000003F800
00001FC0E0
00003C0FE0
0000207E00
000003F000
00001F8000
00007C0000
0000E00000
0000C00000
0000C00000
0000C00000
0000C00000
0000C00000
00E0C00000
01E0C00000
0300C00000
43C0E00000
81E0600000
8060600000
8FC0E00000
C000E00000
C001E00000
F00F780000
7FFE7F0000
3FF83F0000
0FE00F0000
ENDCHAR
STARTCHAR C209
ENCODING 1604
SWIDTH 408 0
DWIDTH 17 0
BBX 14 21 0 -2
BITMAP
0008
0018
0018
001C
001C
0008
0008
0008
0008
000C
000C
800C
800C
800C
8008
8008
8018
E070
7FE0
7FC0
3E00
ENDCHAR
STARTCHAR C210
ENCODING 65247
SWIDTH 168 0
DWIDTH 7 0
BBX 5 19 -1 0
BITMAP
10
10
38
38
30
10
10
10
10
18
18
18
18
18
18
18
F0
F0
E0
ENDCHAR
STARTCHAR C211
ENCODING 65248
SWIDTH 168 0
DWIDTH 7 0
BBX 8 18 -1 0
BITMAP
10
10
10
10
10
18
18
18
18
18
18
08
08
0C
1C
FF
F7
E7
ENDCHAR
STARTCHAR C212
ENCODING 65246
SWIDTH 384 0
DWIDTH 16 0
BBX 16 25 0 -6
BITMAP
0010
0010
0010
0010
0018
0018
0018
0018
0018
0018
0008
0008
0008
000C
400C
000C
800F
800F
801B
8018
C030
E060
FFE0
7F80
3F00
ENDCHAR
STARTCHAR C213
ENCODING 1605
SWIDTH 264 0
DWIDTH 11 0
BBX 8 15 0 -7
BITMAP
1E
1F
1B
1F
7E
E8
C8
80
80
80
C0
C0
C0
80
80
ENDCHAR
STARTCHAR C214
ENCODING 65251
SWIDTH 240 0
DWIDTH 10 0
BBX 8 6 -1 0
BITMAP
0E
1F
39
FF
EF
C7
ENDCHAR
STARTCHAR C215
ENCODING 65252
SWIDTH 264 0
DWIDTH 11 0
BBX 12 9 -1 -3
BITMAP
0200
0700
1F80
FDF0
FAF0
E3F0
0380
0100
0100
ENDCHAR
STARTCHAR C216
ENCODING 65250
SWIDTH 240 0
DWIDTH 10 0
BBX 10 13 0 -9
BITMAP
1800
3FC0
7FC0
D3C0
8A00
8F00
8700
8300
C000
C000
C000
8000
8000
ENDCHAR
STARTCHAR C217
ENCODING 1606
SWIDTH 432 0
DWIDTH 18 0
BBX 15 11 0 -1
BITMAP
4304
430E
4006
8006
8006
8002
C002
E006
FFFC
7FF8
1FE0
ENDCHAR
STARTCHAR C218
ENCODING 65255
SWIDTH 168 0
DWIDTH 7 0
BBX 5 14 -1 0
BITMAP
38
30
00
00
00
00
18
18
08
08
18
F8
F0
E0
ENDCHAR
STARTCHAR C219
ENCODING 65256
SWIDTH 192 0
DWIDTH 8 0
BBX 9 11 -1 0
BITMAP
0C00
1E00
0C00
0000
0000
0000
0C00
1C00
FF80
F780
E380
ENDCHAR
STARTCHAR C220
ENCODING 65254
SWIDTH 408 0
DWIDTH 17 0
BBX 17 16 0 -6
BITMAP
010000
038000
030000
000000
400000
400400
400E00
800780
800780
C00580
C00400
E00C00
703800
7FF000
3FE000
1F8000
ENDCHAR
STARTCHAR C226
ENCODING 1607
SWIDTH 192 0
DWIDTH 8 0
BBX 5 8 0 0
BITMAP
20
70
78
98
98
F8
F0
70
ENDCHAR
STARTCHAR C227
ENCODING 65259
SWIDTH 288 0
DWIDTH 12 0
BBX 10 10 -1 0
BITMAP
3800
3C00
1E00
1700
2380
3380
1CC0
FFC0
FFC0
F780
ENDCHAR
STARTCHAR C228
ENCODING 65260
SWIDTH 216 0
DWIDTH 9 0
BBX 10 14 -1 -5
BITMAP
0C00
0C00
1C00
1400
2400
2400
FFC0
FFC0
FFC0
1600
1300
0900
0F00
0600
ENDCHAR
STARTCHAR C229
ENCODING 65258
SWIDTH 312 0
DWIDTH 13 0
BBX 13 16 0 0
BITMAP
0200
0200
0200
0600
1E00
7E00
7200
4200
E300
FF00
3F00
0180
01C0
00F8
0078
0038
ENDCHAR
STARTCHAR C230
ENCODING 1577
SWIDTH 192 0
DWIDTH 8 0
BBX 8 13 -1 0
BITMAP
44
E7
46
00
00
10
38
3C
4C
4C
7C
78
38
ENDCHAR
STARTCHAR C231
ENCODING 65172
SWIDTH 312 0
DWIDTH 13 0
BBX 13 20 0 0
BITMAP
3300
7300
2000
0000
0200
0200
0200
0600
1E00
7E00
7200
4200
E300
FF00
3F00
0180
01C0
00F8
0078
0038
ENDCHAR
STARTCHAR C234
ENCODING 1608
SWIDTH 336 0
DWIDTH 14 0
BBX 10 12 1 -4
BITMAP
0380
0780
0640
07C0
03C0
0040
0040
0180
0380
0F00
3E00
F800
ENDCHAR
STARTCHAR C235
ENCODING 65262
SWIDTH 360 0
DWIDTH 15 0
BBX 14 13 1 -7
BITMAP
01C0
03E0
0660
077C
03FC
01FC
0030
0020
0020
0040
0080
0E00
F800
ENDCHAR
STARTCHAR C236
ENCODING 1609
SWIDTH 552 0
DWIDTH 23 0
BBX 20 16 0 -4
BITMAP
0000F0
0001F0
000380
000300
400600
400600
800780
8007E0
8001F0
800030
C00020
C00060
F003C0
7FFF80
7FFE00
0FE000
ENDCHAR
STARTCHAR C237
ENCODING 65267
SWIDTH 168 0
DWIDTH 7 0
BBX 9 14 -1 -6
BITMAP
0600
0600
0200
0200
0600
FE00
FC00
F800
0000
0000
0000
0100
3380
3380
ENDCHAR
STARTCHAR C238
ENCODING 65268
SWIDTH 192 0
DWIDTH 8 0
BBX 10 11 -1 -6
BITMAP
0600
0E00
FFC0
FBC0
F1C0
0000
0000
0000
1000
1980
3980
ENDCHAR
STARTCHAR C239
ENCODING 65264
SWIDTH 504 0
DWIDTH 21 0
BBX 21 12 0 -9
BITMAP
0007F8
000FF8
400E78
400C00
C00F80
C003C0
C000C0
F001C0
7FFF80
7FFE00
1FF800
078000
ENDCHAR
STARTCHAR C240
ENCODING 1610
SWIDTH 552 0
DWIDTH 23 0
BBX 20 20 0 -8
BITMAP
0000F0
0001F0
000380
000300
400600
400600
800780
8007E0
8001F0
800030
C00020
C00060
F003C0
7FFF80
7FFE00
0FE000
000000
004000
0CE000
0CE000
ENDCHAR
STARTCHAR C241
ENCODING 65266
SWIDTH 504 0
DWIDTH 21 0
BBX 21 19 0 -16
BITMAP
0007F8
000FF8
400E78
400C00
C00F80
C003C0
C000C0
F001C0
7FFF80
7FFE00
1FF800
078000
000000
000000
000000
000000
002000
077000
062000
ENDCHAR
STARTCHAR C242
ENCODING 1574
SWIDTH 552 0
DWIDTH 23 0
BBX 20 17 0 -4
BITMAP
01C000
0340F0
0381F0
01C380
01C300
420600
400600
800780
8007E0
8001F0
800030
C00020
C00060
F003C0
7FFF80
7FFE00
0FE000
ENDCHAR
STARTCHAR C243
ENCODING 65163
SWIDTH 168 0
DWIDTH 7 0
BBX 7 18 -1 0
BITMAP
3E
64
60
7E
3C
3C
40
00
00
00
18
18
08
08
18
F8
F0
E0
ENDCHAR
STARTCHAR C244
ENCODING 65164
SWIDTH 192 0
DWIDTH 8 0
BBX 9 16 -1 0
BITMAP
0F00
1300
1800
1F00
0F00
0F00
1000
0000
0000
0000
0000
0C00
1C00
FF80
F780
E380
ENDCHAR
STARTCHAR C245
ENCODING 65162
SWIDTH 504 0
DWIDTH 21 0
BBX 21 17 0 -9
BITMAP
00C000
03C000
030000
03C000
01C000
0207F8
000FF8
400E78
400C00
C00F80
C003C0
C000C0
F001C0
7FFF80
7FFE00
1FF800
078000
ENDCHAR
STARTCHAR C246
ENCODING 65273
SWIDTH 288 0
DWIDTH 12 0
BBX 9 25 0 -5
BITMAP
0300
0380
0100
0100
0100
0100
4180
E180
3180
1980
0980
0580
0380
0300
0100
0100
0300
0280
0C80
1900
0E00
3000
4000
7000
C000
ENDCHAR
STARTCHAR C247
ENCODING 65274
SWIDTH 360 0
DWIDTH 15 0
BBX 14 21 0 -5
BITMAP
0060
0060
2060
7060
1860
0C20
0620
0220
0320
0120
01E0
01F0
01F0
03BC
0F1C
7E0C
0000
3000
4000
7000
C000
ENDCHAR
STARTCHAR C248
ENCODING 65275
SWIDTH 288 0
DWIDTH 12 0
BBX 9 23 0 -2
BITMAP
0300
0300
0380
0100
0100
0100
0100
4180
E180
3180
1980
0980
0580
0380
0300
0100
0100
0300
0280
0C80
1880
1900
0E00
ENDCHAR
STARTCHAR C249
ENCODING 65276
SWIDTH 312 0
DWIDTH 13 0
BBX 13 18 0 -1
BITMAP
00C0
00C0
00C0
40C0
E0C0
30C0
1840
0C40
0440
0640
0240
03C0
03E0
03E0
0778
0E38
3C18
F000
ENDCHAR
ENDFONT

