/* XPM */
static char * trans_xpm[] = {
"48 48 26 1",
"       s None  c None",
".	c #CF3CCF3CFFFF",
"X	c #DF7DDF7DDF7D",
"o	c #000000000000",
"O	c #BEFBBEFBBEFB",
"+	c #CF3CCF3CCF3C",
"@	c #AEBAAEBAA699",
"#	c #AEBAAEBAAEBA",
"$	c #61856185CF3C",
"%	c #30C230C2CF3C",
"&	c #9E799A69FFFF",
"*	c #CF3CC71BCF3C",
"=	c #514451445144",
"-	c #618561856185",
";	c #71C671C671C6",
":	c #9E799E799E79",
">	c #965896589658",
",	c #CF3CCF3C9E79",
"<	c #FFFF00000000",
"1	c #C71BC30BC71B",
"2	c #8E388E388E38",
"3	c #9E799A696185",
"4	c #000061856185",
"5	c #104010401040",
"6	c #30C230C230C2",
"7	c #30C200000000",
"                                                ",
"   ...                                          ",
"   ......                                       ",
"    ......                                      ",
"     .XX....      oooooooooooo                  ",
"      OO...X    oooooooooooooooo                ",
"      +.@#$%. ooooo          ooooo              ",
"       X+&.OO#.X                 ooo            ",
"        *...=-;X                   ooo          ",
"        XX.+O:;O.                    oo         ",
"        ..XO++#;@X                    oo        ",
"        oo ...X;>+&                    o        ",
"       oo  ....X.+%                    oo       ",
"      oo   ..X++>$$#&                   oo      ",
"      o       .O,+%%O                    o      ",
"     oo        ..X%O$@                   oo     ",
"     o         X...+;O.                   o     ",
"     o       <.X..+,,>#.  <               o     ",
"     o       <  OO.O+;>.1 <    <          o     ",
"     o       <   *OOO,--. <    <          o     ",
"     o       <   1>:>O2;% <  < < <        o     ",
"     o       <   <O...OO-.X  < < <        o     ",
"     o ooo   <   <  ..O,%.1X < < <    ooo o     ",
"     oooooo  <   <  1.X.X&%O < < < < oooooo     ",
"     oooooo  <   <   <X..O;$:< < < < oooooo     ",
"     ooo1ooo< <  <  <<..X..--. < < <ooo1ooo     ",
"     oo1o1oo< <  <  < < ..X:-.. < < oo1o1oo     ",
"     ooo1ooo< < < < < < <..Oo.< < < ooo1ooo     ",
"     oo1o1oo  < < < < < <X3O;o#X<   oo1o1oo     ",
"     ooo1ooo  < < < < < <;; 3o4=<   ooo1ooo     ",
"     oo1o1oo  < <  <<  <  < <-55    oo1o1oo     ",
"     ooo1ooo  < <  <   <  < <  oo   ooo1ooo     ",
"      ooooo   < <  <      < <   oo   ooooo      ",
"      ooooo    <   <       <    o5   ooooo      ",
"       ooo     <   <       <     67   ooo       ",
"               <           <     77             ",
"           o   <           <      7o            ",
"           o   <           <       7            ",
"          oooo                     7o           ",
"          o                         oo          ",
"         o   ooooo   ooo o   o oo   o o         ",
"         o   o  o   o   o   o o  o  o  o        ",
"        o    o  o   o   o  o  o  o o o o        ",
"        o   o  o   o o  o  o o  o  o o o        ",
"         ooo    ooo   oo oo  o   oo  oo         ",
"                                                ",
"                                                ",
"                                                "};
