#define copy_width 16
#define copy_height 16
static unsigned char copy_bits[] = {
   0x00, 0x00, 0xfe, 0x03, 0x02, 0x02, 0xfa, 0x7f, 0x42, 0x40, 0x7a, 0x5f,
   0x42, 0x40, 0x7a, 0x5f, 0x42, 0x40, 0x5a, 0x5f, 0x42, 0x40, 0x7e, 0x43,
   0x40, 0x40, 0xc0, 0x7f, 0x00, 0x00, 0x00, 0x00};
