#define cut_width 16
#define cut_height 16
static unsigned char cut_bits[] = {
  0x00, 0x00, 0x10, 0x04, 0x10, 0x04, 0x20, 0x02, 0x20, 0x02, 0x40, 0x01,
  0x40, 0x01, 0x80, 0x00, 0xc0, 0x01, 0x20, 0x02, 0x38, 0x0e, 0x24, 0x12,
  0x24, 0x12, 0x24, 0x12, 0x18, 0x0c, 0x00, 0x00, };
