#define paste_width 16
#define paste_height 16
static unsigned char paste_bits[] = {
  0xe0, 0x01, 0xe0, 0x01, 0xfc, 0x0f, 0xf2, 0x13, 0x02, 0x10, 0xc2, 0xff,
  0x42, 0x80, 0x42, 0xbf, 0x42, 0x80, 0x42, 0xbf, 0x42, 0x80, 0x42, 0xbf,
  0x42, 0x80, 0x7c, 0x83, 0x40, 0x80, 0xc0, 0xff, };
